<?xml version="1.0" encoding="UTF-8"?>
<svg version="1.1" xmlns="http://www.w3.org/2000/svg" width="1024" height="1024">
<path d="M0 0 C0.7579184 0.26007843 1.51583679 0.52015686 2.29672241 0.78811646 C13.75634756 4.80024371 24.98590222 9.44382625 36.23828125 13.99609375 C38.56490795 14.93277919 40.89172967 15.86898038 43.21875 16.8046875 C48.8525161 19.071257 54.48386371 21.34374682 60.11328125 23.62109375 C60.44328125 22.30109375 60.77328125 20.98109375 61.11328125 19.62109375 C61.11328125 21.27109375 61.11328125 22.92109375 61.11328125 24.62109375 C62.28632812 24.99621094 63.459375 25.37132812 64.66796875 25.7578125 C70.92785462 27.84566424 77.0655788 30.25044198 83.21289062 32.64477539 C85.21268116 33.42362342 87.21363972 34.19940146 89.21484375 34.97460938 C96.39694321 37.76100195 103.55953447 40.59235664 110.70770264 43.46461487 C114.65060262 45.04565837 118.60606886 46.588996 122.57421875 48.10546875 C123.5590625 48.48316406 124.54390625 48.86085938 125.55859375 49.25 C127.56464181 50.01764772 129.57255488 50.78043443 131.58203125 51.5390625 C132.54882812 51.91160156 133.515625 52.28414063 134.51171875 52.66796875 C135.37458496 52.99635742 136.23745117 53.32474609 137.12646484 53.66308594 C139.11328125 54.62109375 139.11328125 54.62109375 140.11328125 56.62109375 C140.94859375 57.02328125 140.94859375 57.02328125 141.80078125 57.43359375 C149.3097674 61.28955961 152.85733513 66.99507245 156.11328125 74.62109375 C158.44791089 81.98348384 159.50497665 88.91775081 159.11328125 96.62109375 C158.12328125 96.29109375 157.13328125 95.96109375 156.11328125 95.62109375 C155.64921875 94.44546875 155.64921875 94.44546875 155.17578125 93.24609375 C153.90139618 90.097613 153.07242265 89.25640874 150.11328125 87.62109375 C137.93386606 83.34761474 127.17063516 87.69343714 115.80078125 92.30859375 C114.4764156 92.83265604 113.15154682 93.35544867 111.82617188 93.87695312 C107.90842655 95.42608177 104.00903286 97.01759142 100.11328125 98.62109375 C99.44218323 98.89520081 98.77108521 99.16930786 98.07965088 99.45172119 C96.11484111 100.25684135 94.15449207 101.0719132 92.1953125 101.890625 C91.04909424 102.36733643 89.90287598 102.84404785 88.72192383 103.33520508 C85.99578443 104.35231628 85.99578443 104.35231628 85.11328125 106.62109375 C84.10394531 106.76160156 83.09460938 106.90210938 82.0546875 107.046875 C77.63479218 107.69080425 74.11933065 109.04712352 70.05078125 110.80859375 C69.31778809 111.11740479 68.58479492 111.42621582 67.82958984 111.74438477 C64.20780917 113.27505088 60.60218956 114.841847 57 116.41796875 C56.36392822 116.69487549 55.72785645 116.97178223 55.07250977 117.25708008 C53.33566802 118.01603808 51.60323799 118.78506889 49.87109375 119.5546875 C47.11328125 120.62109375 47.11328125 120.62109375 44.11328125 120.62109375 C43.78328125 121.28109375 43.45328125 121.94109375 43.11328125 122.62109375 C41.46875 123.296875 41.46875 123.296875 39.30078125 123.93359375 C35.42325355 125.14570767 31.72382535 126.58600256 27.98828125 128.18359375 C24.65858458 129.60392413 21.43101825 130.90169465 17.92578125 131.80859375 C16.53359375 132.21078125 16.53359375 132.21078125 15.11328125 132.62109375 C14.78328125 133.28109375 14.45328125 133.94109375 14.11328125 134.62109375 C11.80877605 135.25926442 9.49831802 135.64146698 7.14453125 136.05859375 C6.47421875 136.24421875 5.80390625 136.42984375 5.11328125 136.62109375 C4.78328125 137.28109375 4.45328125 137.94109375 4.11328125 138.62109375 C2.36328125 139.26171875 2.36328125 139.26171875 0.11328125 139.87109375 C-5.8316357 141.74193822 -11.73365171 144.73145115 -15.51953125 149.8125 C-15.97070312 150.40933594 -16.421875 151.00617188 -16.88671875 151.62109375 C-17.54671875 151.62109375 -18.20671875 151.62109375 -18.88671875 151.62109375 C-19.60044594 153.2681565 -20.24908336 154.94310587 -20.88671875 156.62109375 C-21.13616588 157.26940407 -21.385613 157.91771439 -21.64261913 158.58567047 C-24.27535217 166.23023556 -24.34252559 173.62991332 -24.35083008 181.64257812 C-24.36314412 183.13520857 -24.37671922 184.62782906 -24.39144897 186.12043762 C-24.42737527 190.14724287 -24.44503237 194.17393388 -24.45869279 198.20086861 C-24.4756154 202.43097129 -24.50766827 206.66096373 -24.53752136 210.89099121 C-24.5852937 217.99224025 -24.62133559 225.09347444 -24.65014648 232.19482422 C-24.68350028 240.38493422 -24.73455249 248.5747863 -24.79530317 256.7647357 C-24.85359566 264.66906565 -24.90013543 272.57342209 -24.9411068 280.4778595 C-24.95863516 283.83009755 -24.98006453 287.18227632 -25.00467873 290.5344696 C-25.03311209 294.48748723 -25.05114395 298.44042468 -25.06141281 302.39352989 C-25.06675837 303.83743199 -25.07552913 305.28132647 -25.08812904 306.72518349 C-25.64806039 321.51961856 -25.64806039 321.51961856 -19.88671875 334.62109375 C-16.81110629 335.98090256 -16.81110629 335.98090256 -13.88671875 336.62109375 C-13.88671875 337.61109375 -13.88671875 338.60109375 -13.88671875 339.62109375 C-21.51768717 339.85710308 -28.47593957 339.48674445 -35.88671875 337.62109375 C-37.06234375 337.33234375 -38.23796875 337.04359375 -39.44921875 336.74609375 C-42.07382116 335.88713296 -44.45796156 334.96943542 -46.96484375 333.84375 C-47.75705322 333.48829102 -48.5492627 333.13283203 -49.36547852 332.76660156 C-51.89114737 331.61908164 -54.41116154 330.45998049 -56.9296875 329.296875 C-57.77595703 328.90822266 -58.62222656 328.51957031 -59.49414062 328.11914062 C-61.22832242 327.32228343 -62.96006963 326.52010846 -64.68945312 325.71289062 C-69.13197836 323.6836729 -72.99972536 322.24447401 -77.88671875 321.62109375 C-79.38671875 320.24609375 -79.38671875 320.24609375 -80.88671875 318.62109375 C-84.49398131 316.58220622 -87.74668328 315.08109769 -91.88671875 314.62109375 C-92.54671875 314.95109375 -93.20671875 315.28109375 -93.88671875 315.62109375 C-93.88671875 314.96109375 -93.88671875 314.30109375 -93.88671875 313.62109375 C-94.87671875 313.62109375 -95.86671875 313.62109375 -96.88671875 313.62109375 C-97.29921875 313.18796875 -97.71171875 312.75484375 -98.13671875 312.30859375 C-102.18981542 308.40025054 -108.49842429 307.02558419 -113.7734375 305.3671875 C-119.52981639 303.33489846 -119.52981639 303.33489846 -120.88671875 300.62109375 C-122.76160136 299.77944666 -122.76160136 299.77944666 -125.01171875 299.12109375 C-125.81738281 298.86714844 -126.62304688 298.61320312 -127.453125 298.3515625 C-130.58999754 297.40999723 -133.73004575 296.49421607 -136.88671875 295.62109375 C-136.88671875 294.96109375 -136.88671875 294.30109375 -136.88671875 293.62109375 C-142.18766091 291.8180522 -147.48980363 290.11385751 -152.88671875 288.62109375 C-152.88671875 287.96109375 -152.88671875 287.30109375 -152.88671875 286.62109375 C-153.69496094 286.42773438 -154.50320313 286.234375 -155.3359375 286.03515625 C-156.93888672 285.64457031 -156.93888672 285.64457031 -158.57421875 285.24609375 C-159.62996094 284.99085938 -160.68570313 284.735625 -161.7734375 284.47265625 C-166.45351459 283.19253479 -169.48252484 282.02528766 -172.88671875 278.62109375 C-174.99004766 277.90661732 -174.99004766 277.90661732 -176.88671875 277.62109375 C-176.88671875 276.96109375 -176.88671875 276.30109375 -176.88671875 275.62109375 C-177.64984375 275.53859375 -178.41296875 275.45609375 -179.19921875 275.37109375 C-182.48344835 274.45456456 -183.07279584 273.42442915 -184.88671875 270.62109375 C-185.36882812 270.15316406 -185.8509375 269.68523437 -186.34765625 269.203125 C-195.60835271 259.68388117 -195.3266596 243.98346922 -195.2590332 231.66992188 C-195.26146683 230.1014329 -195.26519165 228.53294548 -195.27009583 226.96446228 C-195.27943043 222.73921094 -195.27014249 218.51419429 -195.2567637 214.28896141 C-195.24536704 209.84632755 -195.24956301 205.40370387 -195.25151062 200.96105957 C-195.25239102 193.50346081 -195.24136665 186.0459534 -195.22290039 178.58837891 C-195.20173673 169.99279026 -195.19822447 161.39733529 -195.20446235 152.80172586 C-195.21017692 144.49901997 -195.20448575 136.19636067 -195.1932888 127.8936615 C-195.18867046 124.3756371 -195.18775689 120.85764145 -195.18987465 117.33961487 C-195.19177232 113.18952095 -195.18354123 109.03956111 -195.16781425 104.88949776 C-195.16360836 103.37550474 -195.16269561 101.86149801 -195.16550446 100.34750175 C-195.20184809 77.23477541 -195.20184809 77.23477541 -191.42294788 72.96855927 C-190.91599227 72.52389565 -190.40903666 72.07923203 -189.88671875 71.62109375 C-189.30921875 70.71359375 -188.73171875 69.80609375 -188.13671875 68.87109375 C-178.60540397 55.10363907 -163.80930363 50.37876346 -148.76171875 44.74609375 C-146.92805215 44.05166061 -145.09471566 43.35635515 -143.26171875 42.66015625 C-138.80712864 40.97038485 -134.3482339 39.29249054 -129.88671875 37.62109375 C-129.88671875 36.96109375 -129.88671875 36.30109375 -129.88671875 35.62109375 C-128.7886792 35.53802979 -127.69063965 35.45496582 -126.55932617 35.36938477 C-121.08061466 34.67641007 -116.22692115 32.6864842 -111.125 30.6484375 C-110.09851852 30.24710098 -109.07203705 29.84576447 -108.01445007 29.43226624 C-104.73924899 28.1496493 -101.46916752 26.85453486 -98.19921875 25.55859375 C-96.05307555 24.7146267 -93.90659368 23.87152032 -91.75976562 23.02929688 C-88.5690748 21.77737792 -85.37863324 20.52486822 -82.18948364 19.26902771 C-72.8554453 15.59571729 -63.48863245 12.01255596 -54.10726929 8.46212769 C-52.09832031 7.70123788 -50.09046505 6.93757407 -48.08325195 6.17211914 C-45.01952315 5.00450181 -41.95354189 3.84305345 -38.88671875 2.68359375 C-37.87867188 2.29880859 -36.870625 1.91402344 -35.83203125 1.51757812 C-34.86007812 1.15083984 -33.888125 0.78410156 -32.88671875 0.40625 C-32.04109375 0.085354 -31.19546875 -0.23554199 -30.32421875 -0.56616211 C-20.33158009 -3.89804253 -9.84556176 -3.47123505 0 0 Z " fill="#99BED8" transform="translate(528.88671875,300.37890625)"/>
<path d="M0 0 C6.14685059 8.25434222 6.77054688 16.56921098 6.70507812 26.59790039 C6.71051028 27.94436903 6.71763903 29.29083171 6.72631836 30.63728333 C6.74442344 34.26542958 6.73753844 37.89311662 6.72480202 41.52127004 C6.71460936 45.33405158 6.72408477 49.14679623 6.73034668 52.95957947 C6.7376041 59.35894769 6.72808479 65.75813067 6.70898438 72.1574707 C6.68720984 79.53759089 6.69427866 86.91726907 6.71629 94.2973786 C6.73448747 100.65524369 6.73698145 107.01297634 6.72653532 113.37085909 C6.72032536 117.15882794 6.71939553 120.94658953 6.73268127 124.73454475 C6.74430323 128.29626045 6.73609999 131.8574104 6.71310425 135.41906548 C6.70536113 137.33641677 6.71711807 139.25381637 6.72961426 141.17114258 C6.63120083 151.28422113 3.82599562 157.7714029 -1.8125 165.9375 C-2.1425 166.9275 -2.4725 167.9175 -2.8125 168.9375 C-3.8025 168.9375 -4.7925 168.9375 -5.8125 168.9375 C-5.8125 169.5975 -5.8125 170.2575 -5.8125 170.9375 C-8.2875 171.9275 -8.2875 171.9275 -10.8125 172.9375 C-10.8125 173.5975 -10.8125 174.2575 -10.8125 174.9375 C-14.76802103 176.77694626 -18.72736285 178.60801553 -22.6875 180.4375 C-23.81542969 180.96214844 -24.94335938 181.48679687 -26.10546875 182.02734375 C-27.18183594 182.52363281 -28.25820313 183.01992188 -29.3671875 183.53125 C-30.85968018 184.22250977 -30.85968018 184.22250977 -32.38232422 184.92773438 C-34.8125 185.9375 -34.8125 185.9375 -36.8125 185.9375 C-37.1425 186.5975 -37.4725 187.2575 -37.8125 187.9375 C-39.79550156 188.65314603 -41.80126841 189.30552536 -43.8125 189.9375 C-47.0594145 191.16369367 -50.27894642 192.45759637 -53.5 193.75 C-54.83575073 194.28512207 -54.83575073 194.28512207 -56.19848633 194.83105469 C-62.48549112 197.36581353 -68.67807596 200.05193336 -74.8125 202.9375 C-80.15283337 205.41598527 -85.40948997 207.5581394 -91.0625 209.2265625 C-93.01698363 209.79618729 -93.01698363 209.79618729 -93.8125 211.9375 C-95.66796875 212.68359375 -95.66796875 212.68359375 -98 213.375 C-103.03657586 214.96044041 -107.40903652 217.00185768 -111.8125 219.9375 C-112.8025 219.9375 -113.7925 219.9375 -114.8125 219.9375 C-120.15694174 221.81695404 -120.15694174 221.81695404 -123.8125 225.9375 C-123.8125 225.2775 -123.8125 224.6175 -123.8125 223.9375 C-124.46323486 224.2048999 -125.11396973 224.4722998 -125.78442383 224.74780273 C-128.73086533 225.9578873 -131.6779244 227.1664606 -134.625 228.375 C-135.64916016 228.79587891 -136.67332031 229.21675781 -137.72851562 229.65039062 C-138.71142578 230.05322266 -139.69433594 230.45605469 -140.70703125 230.87109375 C-141.61300049 231.24290771 -142.51896973 231.61472168 -143.45239258 231.99780273 C-148.86223976 234.15178037 -152.41042342 234.21440831 -157.8125 231.9375 C-160.63458606 229.59861265 -162.9542239 227.10433709 -164.8125 223.9375 C-164.8125 222.6175 -164.8125 221.2975 -164.8125 219.9375 C-165.4725 219.9375 -166.1325 219.9375 -166.8125 219.9375 C-166.791875 219.009375 -166.77125 218.08125 -166.75 217.125 C-166.65480396 213.91463989 -166.65480396 213.91463989 -167.8125 210.9375 C-167.52014733 208.59867862 -167.18650786 206.26466 -166.8125 203.9375 C-166.8125 202.9475 -166.8125 201.9575 -166.8125 200.9375 C-166.1525 200.6075 -165.4925 200.2775 -164.8125 199.9375 C-164.3175 198.9475 -164.3175 198.9475 -163.8125 197.9375 C-161.69311523 196.95117188 -161.69311523 196.95117188 -158.87109375 195.90625 C-157.8258252 195.51348877 -156.78055664 195.12072754 -155.70361328 194.71606445 C-154.5639209 194.29413818 -153.42422852 193.87221191 -152.25 193.4375 C-141.61372858 189.42259416 -131.08984367 185.21485202 -120.6171875 180.79296875 C-116.06103514 178.8702081 -111.49135701 176.9840676 -106.91159058 175.11851501 C-103.61355828 173.77426537 -100.31875985 172.42218393 -97.02410889 171.06967163 C-95.39307448 170.40233102 -93.76063819 169.73840573 -92.12677002 169.07803345 C-89.82541097 168.14717679 -87.52953103 167.20384109 -85.234375 166.2578125 C-84.54376984 165.98209915 -83.85316467 165.7063858 -83.14163208 165.4223175 C-79.29365117 163.82007042 -76.4002439 162.2521662 -73.8125 158.9375 C-73.89583333 156.35416667 -73.89583333 156.35416667 -74.8125 153.9375 C-75.1425 152.9475 -75.4725 151.9575 -75.8125 150.9375 C-92.969871 155.66230902 -109.3887373 163.17218191 -125.8125 169.9375 C-126.45745422 170.20316772 -127.10240845 170.46883545 -127.76690674 170.74255371 C-134.75886259 173.62367841 -141.74798884 176.5116448 -148.734375 179.40625 C-150.33442383 180.06560547 -150.33442383 180.06560547 -151.96679688 180.73828125 C-154.30428426 181.72333084 -156.59472851 182.7676246 -158.890625 183.84375 C-161.82499048 184.94217558 -162.97978946 185.18389264 -165.8125 183.9375 C-165.87308594 183.29683594 -165.93367187 182.65617188 -165.99609375 181.99609375 C-166.38302714 178.00175057 -166.79835484 174.03494444 -167.375 170.0625 C-167.82960128 166.81534801 -168.02757421 163.91728249 -167.3203125 160.6953125 C-166.65167842 157.06411512 -166.66740455 153.48996749 -166.6875 149.8125 C-166.68169922 148.73935547 -166.68169922 148.73935547 -166.67578125 147.64453125 C-166.68170346 144.47615016 -166.80353382 141.96439855 -167.8125 138.9375 C-167.51990515 136.93113529 -167.18616113 134.93035937 -166.8125 132.9375 C-166.8125 131.9475 -166.8125 130.9575 -166.8125 129.9375 C-166.80116349 128.41666377 -166.78939688 126.89583072 -166.77734375 125.375 C-166.76804207 123.56250095 -166.75893486 121.75000089 -166.75 119.9375 C-166.74162109 119.02226563 -166.73324219 118.10703125 -166.72460938 117.1640625 C-166.72138672 116.28492188 -166.71816406 115.40578125 -166.71484375 114.5 C-166.70960693 113.69691406 -166.70437012 112.89382813 -166.69897461 112.06640625 C-166.7282026 109.74828938 -166.7282026 109.74828938 -167.8125 106.9375 C-167.81670738 105.34290474 -167.75700318 103.74766463 -167.65625 102.15625 C-167.60339844 101.23199219 -167.55054688 100.30773437 -167.49609375 99.35546875 C-167.37369792 97.41015625 -167.25130208 95.46484375 -167.12890625 93.51953125 C-167.07605469 92.59527344 -167.02320313 91.67101562 -166.96875 90.71875 C-166.88850586 89.4512793 -166.88850586 89.4512793 -166.80664062 88.15820312 C-166.69684888 85.76158077 -166.69684888 85.76158077 -167.8125 82.9375 C-167.31494944 80.09683343 -166.7426415 77.35863729 -166.0625 74.5625 C-165.89234375 73.80710937 -165.7221875 73.05171875 -165.546875 72.2734375 C-163.5500683 63.87510345 -159.17884151 57.73457103 -152.8125 51.9375 C-142.95010583 46.04111609 -131.9948801 42.06853759 -121.3125 37.9375 C-119.64792109 37.28796947 -117.98362036 36.63772562 -116.31958008 35.98681641 C-112.87117367 34.6385478 -109.42160807 33.29331053 -105.97119141 31.95019531 C-98.59412975 29.07568209 -91.23257192 26.16199367 -83.87026978 23.24993896 C-79.94267134 21.69657831 -76.01444765 20.14480331 -72.0859375 18.59375 C-70.93533592 18.13946121 -70.93533592 18.13946121 -69.76148987 17.67599487 C-65.10573703 15.83898111 -60.44724815 14.00909861 -55.78636169 12.18515015 C-52.77777687 11.00779228 -49.76995467 9.82849217 -46.76211548 8.64923096 C-45.36490261 8.10218927 -43.96727498 7.55620546 -42.56918335 7.01141357 C-35.30830975 4.18205646 -28.11865402 1.26236117 -21.05200195 -2.02880859 C-12.84809073 -5.81550435 -7.27168671 -5.33257026 0 0 Z " fill="#85ADCA" transform="translate(682.8125,402.0625)"/>
<path d="M0 0 C0.7579184 0.26007843 1.51583679 0.52015686 2.29672241 0.78811646 C13.75634756 4.80024371 24.98590222 9.44382625 36.23828125 13.99609375 C38.56490795 14.93277919 40.89172967 15.86898038 43.21875 16.8046875 C48.8525161 19.071257 54.48386371 21.34374682 60.11328125 23.62109375 C60.44328125 22.30109375 60.77328125 20.98109375 61.11328125 19.62109375 C61.11328125 21.27109375 61.11328125 22.92109375 61.11328125 24.62109375 C62.28632812 24.99621094 63.459375 25.37132812 64.66796875 25.7578125 C70.92785462 27.84566424 77.0655788 30.25044198 83.21289062 32.64477539 C85.21268116 33.42362342 87.21363972 34.19940146 89.21484375 34.97460938 C96.39694321 37.76100195 103.55953447 40.59235664 110.70770264 43.46461487 C114.65060262 45.04565837 118.60606886 46.588996 122.57421875 48.10546875 C123.5590625 48.48316406 124.54390625 48.86085938 125.55859375 49.25 C127.56464181 50.01764772 129.57255488 50.78043443 131.58203125 51.5390625 C132.54882812 51.91160156 133.515625 52.28414063 134.51171875 52.66796875 C135.37458496 52.99635742 136.23745117 53.32474609 137.12646484 53.66308594 C139.11328125 54.62109375 139.11328125 54.62109375 140.11328125 56.62109375 C140.94859375 57.02328125 140.94859375 57.02328125 141.80078125 57.43359375 C147.83198074 60.53069619 151.69654209 64.65291232 153.95703125 70.984375 C155.35150352 75.34210084 156.286028 79.01451369 156.11328125 83.62109375 C154.79328125 83.62109375 153.47328125 83.62109375 152.11328125 83.62109375 C152.11328125 84.28109375 152.11328125 84.94109375 152.11328125 85.62109375 C149.35051948 85.09840909 146.78719365 84.51239788 144.11328125 83.62109375 C135.82083052 82.57600964 129.35455683 85.00380766 121.80078125 88.18359375 C119.9584736 88.93325485 118.11615992 89.68290129 116.27365112 90.43206787 C114.28385534 91.2446409 112.29762722 92.0654525 110.31201172 92.88818359 C105.94464306 94.6953662 101.56335739 96.46716996 97.1796875 98.234375 C88.55683571 101.7131562 79.94286807 105.2134956 71.33074951 108.71875 C67.28163941 110.366435 63.23177349 112.01226042 59.18156433 113.65724182 C55.99152921 114.95292907 52.80210295 116.25006866 49.61401367 117.55053711 C42.74302285 120.35073239 35.8622127 123.12382307 28.96577454 125.86083984 C25.14238252 127.37941593 21.3221341 128.9058164 17.50204468 130.43267822 C15.6394659 131.17468491 13.7754184 131.91301694 11.90982056 132.6473999 C-0.77507474 137.46859332 -0.77507474 137.46859332 -12.31274414 144.49438477 C-13.88671875 145.62109375 -13.88671875 145.62109375 -16.88671875 146.62109375 C-16.88671875 145.96109375 -16.88671875 145.30109375 -16.88671875 144.62109375 C-17.56734375 144.5128125 -18.24796875 144.40453125 -18.94921875 144.29296875 C-22.42639484 143.4976572 -25.60843114 142.24471837 -28.88671875 140.87109375 C-29.60239014 140.57452881 -30.31806152 140.27796387 -31.05541992 139.97241211 C-39.13854713 136.58207012 -47.10992773 132.93824969 -55.09539795 129.32580566 C-63.74256084 125.41804696 -72.42787329 121.6630343 -81.2824707 118.24438477 C-85.28682284 116.69380539 -89.21118163 115.04032493 -93.11328125 113.24609375 C-99.38463479 110.36416175 -105.75140843 107.73872355 -112.13671875 105.12109375 C-114.69327088 104.07037421 -117.24914298 103.01801144 -119.8046875 101.96484375 C-120.78857704 101.55951416 -120.78857704 101.55951416 -121.79234314 101.14599609 C-126.62231495 99.15241946 -131.4386015 97.12779079 -136.25 95.08984375 C-137.63443915 94.50455504 -139.01887925 93.91926856 -140.40332031 93.33398438 C-142.39937797 92.48986081 -144.39476716 91.64433072 -146.38806152 90.79370117 C-163.02509804 82.53794996 -163.02509804 82.53794996 -180.82421875 82.26953125 C-182.53921023 82.99125683 -184.21598683 83.80210751 -185.88671875 84.62109375 C-187.37171875 85.11609375 -187.37171875 85.11609375 -188.88671875 85.62109375 C-190.96843914 89.45465658 -191.14439188 92.8357111 -191.16519165 97.14472961 C-191.17635513 98.46421097 -191.18751862 99.78369232 -191.19902039 101.14315796 C-191.20138515 102.59844942 -191.20356083 104.0537412 -191.20556641 105.5090332 C-191.21486795 107.04670233 -191.22503696 108.58436641 -191.23600769 110.12202454 C-191.26329631 114.2910063 -191.27845372 118.45995429 -191.29143572 122.62900186 C-191.30707122 126.98791134 -191.33386012 131.34675192 -191.35946655 135.70561218 C-191.40624689 143.95734012 -191.44299461 152.20908104 -191.47613943 160.46087378 C-191.51436606 169.85625864 -191.56377482 179.25157427 -191.61412358 188.64690077 C-191.71743236 207.9715811 -191.80669621 227.29630368 -191.88671875 246.62109375 C-192.21671875 246.62109375 -192.54671875 246.62109375 -192.88671875 246.62109375 C-192.98034801 225.46271211 -193.05078884 204.30436486 -193.09396744 183.14581776 C-193.11455294 173.32052987 -193.14259648 163.49537104 -193.18847656 153.67016602 C-193.22846755 145.10199269 -193.25418069 136.53391289 -193.26307273 127.96564883 C-193.2682668 123.43288665 -193.28039021 118.90039192 -193.30963898 114.36771584 C-193.33700233 110.09215545 -193.34512199 105.81696998 -193.33914948 101.54133034 C-193.34024044 99.98097692 -193.34806893 98.42060958 -193.36354065 96.86033249 C-193.46888258 85.67846382 -192.97551701 74.2254234 -185.63671875 65.18359375 C-177.45465796 56.89685841 -167.97766101 52.28135316 -157.23046875 48.16796875 C-156.44273071 47.86288391 -155.65499268 47.55779907 -154.84338379 47.24346924 C-152.35923081 46.28233348 -149.87303191 45.32662559 -147.38671875 44.37109375 C-145.68866307 43.71520354 -143.99074506 43.05895678 -142.29296875 42.40234375 C-138.15913057 40.80447175 -134.02345012 39.21145974 -129.88671875 37.62109375 C-129.88671875 36.96109375 -129.88671875 36.30109375 -129.88671875 35.62109375 C-128.7886792 35.53802979 -127.69063965 35.45496582 -126.55932617 35.36938477 C-121.08061466 34.67641007 -116.22692115 32.6864842 -111.125 30.6484375 C-110.09851852 30.24710098 -109.07203705 29.84576447 -108.01445007 29.43226624 C-104.73924899 28.1496493 -101.46916752 26.85453486 -98.19921875 25.55859375 C-96.05307555 24.7146267 -93.90659368 23.87152032 -91.75976562 23.02929688 C-88.5690748 21.77737792 -85.37863324 20.52486822 -82.18948364 19.26902771 C-72.8554453 15.59571729 -63.48863245 12.01255596 -54.10726929 8.46212769 C-52.09832031 7.70123788 -50.09046505 6.93757407 -48.08325195 6.17211914 C-45.01952315 5.00450181 -41.95354189 3.84305345 -38.88671875 2.68359375 C-37.87867188 2.29880859 -36.870625 1.91402344 -35.83203125 1.51757812 C-34.86007812 1.15083984 -33.888125 0.78410156 -32.88671875 0.40625 C-32.04109375 0.085354 -31.19546875 -0.23554199 -30.32421875 -0.56616211 C-20.33158009 -3.89804253 -9.84556176 -3.47123505 0 0 Z " fill="#C3DDED" transform="translate(528.88671875,300.37890625)"/>
<path d="M0 0 C0.33 0.66 0.66 1.32 1 2 C0.01789629 4.0088485 -0.98440599 6.00787329 -2 8 C-2.81305577 11.2988652 -3.13108929 14.38616117 -3.15821838 17.77729797 C-3.1680072 18.70972824 -3.17779602 19.64215851 -3.18788147 20.60284424 C-3.19363693 21.6134491 -3.1993924 22.62405396 -3.20532227 23.6652832 C-3.22017166 25.27571754 -3.22017166 25.27571754 -3.23532104 26.91868591 C-3.26687502 30.46269536 -3.29166944 34.00671821 -3.31640625 37.55078125 C-3.33698104 40.00986578 -3.35797765 42.46894682 -3.37937927 44.92802429 C-3.43454569 51.3970354 -3.48397896 57.86607813 -3.53222656 64.33514404 C-3.5824812 70.93765067 -3.63814659 77.54011143 -3.69335938 84.14257812 C-3.80087456 97.09501262 -3.90251806 110.0474863 -4 123 C-3.19318283 122.66561417 -2.38636566 122.33122833 -1.55509949 121.98670959 C1.50920081 120.7169716 4.57367553 119.44765628 7.63825989 118.17860413 C8.95133595 117.63476056 10.26434715 117.09076038 11.57728577 116.54658508 C21.76192194 112.32553165 31.96598286 108.15529274 42.18684387 104.02256775 C47.88968555 101.71498859 53.55353756 99.33851751 59.1875 96.8671875 C60.36094971 96.35615479 61.53439941 95.84512207 62.7434082 95.31860352 C64.97662214 94.34201765 67.20471926 93.35361274 69.42651367 92.35131836 C75.23918403 89.81649409 79.64054434 88.25269069 86 89 C88.0625 90.5625 88.0625 90.5625 89 93 C89 97.06681169 88.49636398 99.30509043 86.125 102.625 C76.5345098 109.91377255 63.43999853 113.52683812 52.3125 118 C49.51122055 119.12861135 46.71022283 120.2579196 43.90927124 121.38734436 C42.02447335 122.14733235 40.13956527 122.90704714 38.25454712 123.66648865 C32.22914478 126.09544514 26.2113005 128.54217819 20.19921875 131.00390625 C18.70728098 131.61394597 17.21533779 132.22397242 15.72338867 132.83398438 C13.62449463 133.6923326 11.52608167 134.55176585 9.42910767 135.41479492 C7.52687972 136.19752903 5.62301331 136.97613996 3.71875 137.75390625 C2.12450195 138.40854858 2.12450195 138.40854858 0.49804688 139.07641602 C-2 140 -2 140 -4 140 C-3.94769177 143.35539274 -3.85252053 146.70829557 -3.75 150.0625 C-3.73582031 151.00544922 -3.72164062 151.94839844 -3.70703125 152.91992188 C-3.4917932 159.09725402 -2.66253777 162.9673523 1 168 C5.31940332 170.87960221 8.92805715 170.6056975 14 170 C17.8224312 168.88982934 21.37723912 167.32612223 25 165.6875 C27.14062367 164.75780945 29.28124872 163.82812205 31.421875 162.8984375 C32.51435547 162.41600586 33.60683594 161.93357422 34.73242188 161.43652344 C39.88148354 159.1728445 45.06678595 156.99653215 50.25 154.8125 C51.30098877 154.36680664 52.35197754 153.92111328 53.43481445 153.46191406 C62.21790848 149.73806309 71.02511266 146.07379362 79.83532715 142.41470337 C98.8605524 134.51072888 117.80764468 126.45656179 136.53515625 117.86572266 C140.63537214 115.99828903 144.68360034 114.32599798 149 113 C149 113.66 149 114.32 149 115 C145.04447897 116.83944626 141.08513715 118.67051553 137.125 120.5 C135.99707031 121.02464844 134.86914062 121.54929687 133.70703125 122.08984375 C132.63066406 122.58613281 131.55429687 123.08242188 130.4453125 123.59375 C129.45031738 124.05458984 128.45532227 124.51542969 127.43017578 124.99023438 C125 126 125 126 123 126 C122.67 126.66 122.34 127.32 122 128 C120.01699844 128.71564603 118.01123159 129.36802536 116 130 C112.7530855 131.22619367 109.53355358 132.52009637 106.3125 133.8125 C104.97674927 134.34762207 104.97674927 134.34762207 103.61401367 134.89355469 C97.32700888 137.42831353 91.13442404 140.11443336 85 143 C79.65966663 145.47848527 74.40301003 147.6206394 68.75 149.2890625 C66.79551637 149.85868729 66.79551637 149.85868729 66 152 C64.14453125 152.74609375 64.14453125 152.74609375 61.8125 153.4375 C56.77592414 155.02294041 52.40346348 157.06435768 48 160 C47.01 160 46.02 160 45 160 C39.65555826 161.87945404 39.65555826 161.87945404 36 166 C36 165.34 36 164.68 36 164 C35.34926514 164.2673999 34.69853027 164.5347998 34.02807617 164.81030273 C31.08163467 166.0203873 28.1345756 167.2289606 25.1875 168.4375 C24.16333984 168.85837891 23.13917969 169.27925781 22.08398438 169.71289062 C21.10107422 170.11572266 20.11816406 170.51855469 19.10546875 170.93359375 C18.19949951 171.30540771 17.29353027 171.67722168 16.36010742 172.06030273 C10.95026024 174.21428037 7.40207658 174.27690831 2 172 C-0.82208606 169.66111265 -3.1417239 167.16683709 -5 164 C-5 162.68 -5 161.36 -5 160 C-5.66 160 -6.32 160 -7 160 C-6.979375 159.071875 -6.95875 158.14375 -6.9375 157.1875 C-6.84230396 153.97713989 -6.84230396 153.97713989 -8 151 C-7.70764733 148.66117862 -7.37400786 146.32716 -7 144 C-7 143.01 -7 142.02 -7 141 C-6.34 140.67 -5.68 140.34 -5 140 C-4.505 139.01 -4.505 139.01 -4 138 C-1.88061523 137.01367188 -1.88061523 137.01367188 0.94140625 135.96875 C1.9866748 135.57598877 3.03194336 135.18322754 4.10888672 134.77856445 C5.2485791 134.35663818 6.38827148 133.93471191 7.5625 133.5 C18.19877142 129.48509416 28.72265633 125.27735202 39.1953125 120.85546875 C43.75146486 118.9327081 48.32114299 117.0465676 52.90090942 115.18101501 C56.19894172 113.83676537 59.49374015 112.48468393 62.78839111 111.13217163 C64.41942552 110.46483102 66.05186181 109.80090573 67.68572998 109.14053345 C69.98708903 108.20967679 72.28296897 107.26634109 74.578125 106.3203125 C75.26873016 106.04459915 75.95933533 105.7688858 76.67086792 105.4848175 C80.51884883 103.88257042 83.4122561 102.3146662 86 99 C85.91666667 96.41666667 85.91666667 96.41666667 85 94 C84.67 93.01 84.34 92.02 84 91 C66.842629 95.72480902 50.4237627 103.23468191 34 110 C33.35504578 110.26566772 32.71009155 110.53133545 32.04559326 110.80505371 C25.05363741 113.68617841 18.06451116 116.5741448 11.078125 119.46875 C10.01142578 119.90832031 8.94472656 120.34789062 7.84570312 120.80078125 C5.50821574 121.78583084 3.21777149 122.8301246 0.921875 123.90625 C-2.01249048 125.00467558 -3.16728946 125.24639264 -6 124 C-6.06058594 123.35933594 -6.12117187 122.71867188 -6.18359375 122.05859375 C-6.57052714 118.06425057 -6.98585484 114.09744444 -7.5625 110.125 C-8.01710128 106.87784801 -8.21507421 103.97978249 -7.5078125 100.7578125 C-6.83917842 97.12661512 -6.85490455 93.55246749 -6.875 89.875 C-6.86919922 88.80185547 -6.86919922 88.80185547 -6.86328125 87.70703125 C-6.86920346 84.53865016 -6.99103382 82.02689855 -8 79 C-7.70740515 76.99363529 -7.37366113 74.99285937 -7 73 C-7 72.01 -7 71.02 -7 70 C-6.98866349 68.47916377 -6.97689688 66.95833072 -6.96484375 65.4375 C-6.95554207 63.62500095 -6.94643486 61.81250089 -6.9375 60 C-6.92912109 59.08476563 -6.92074219 58.16953125 -6.91210938 57.2265625 C-6.90888672 56.34742188 -6.90566406 55.46828125 -6.90234375 54.5625 C-6.89710693 53.75941406 -6.89187012 52.95632813 -6.88647461 52.12890625 C-6.9157026 49.81078938 -6.9157026 49.81078938 -8 47 C-8.00420738 45.40540474 -7.94450318 43.81016463 -7.84375 42.21875 C-7.79089844 41.29449219 -7.73804688 40.37023437 -7.68359375 39.41796875 C-7.56119792 37.47265625 -7.43880208 35.52734375 -7.31640625 33.58203125 C-7.26355469 32.65777344 -7.21070313 31.73351562 -7.15625 30.78125 C-7.10275391 29.93626953 -7.04925781 29.09128906 -6.99414062 28.22070312 C-6.88434888 25.82408077 -6.88434888 25.82408077 -8 23 C-7.50244944 20.15933343 -6.9301415 17.42113729 -6.25 14.625 C-6.07984375 13.86960937 -5.9096875 13.11421875 -5.734375 12.3359375 C-4.64298604 7.74568395 -3.44574207 3.44574207 0 0 Z " fill="#33404C" transform="translate(523,462)"/>
<path d="M0 0 C0.99 0.495 0.99 0.495 2 1 C2.81763618 3.50662185 3.50708576 5.94350881 4.125 8.5 C4.39328613 9.58571289 4.39328613 9.58571289 4.66699219 10.69335938 C5.89350446 15.91246112 6.38375645 20.6274097 6 26 C5.01 25.67 4.02 25.34 3 25 C2.690625 24.21625 2.38125 23.4325 2.0625 22.625 C0.78811493 19.47651925 -0.0408586 18.63531499 -3 17 C-15.17941519 12.72652099 -25.94264609 17.07234339 -37.3125 21.6875 C-38.63686565 22.21156229 -39.96173443 22.73435492 -41.28710938 23.25585938 C-45.2048547 24.80498802 -49.10424839 26.39649767 -53 28 C-53.67109802 28.27410706 -54.34219604 28.54821411 -55.03363037 28.83062744 C-56.99844014 29.6357476 -58.95878918 30.45081945 -60.91796875 31.26953125 C-62.06418701 31.74624268 -63.21040527 32.2229541 -64.39135742 32.71411133 C-67.11749682 33.73122253 -67.11749682 33.73122253 -68 36 C-69.00933594 36.14050781 -70.01867187 36.28101563 -71.05859375 36.42578125 C-75.47848907 37.0697105 -78.9939506 38.42602977 -83.0625 40.1875 C-83.79549316 40.49631104 -84.52848633 40.80512207 -85.28369141 41.12329102 C-88.90547208 42.65395713 -92.51109169 44.22075325 -96.11328125 45.796875 C-97.06738892 46.21223511 -97.06738892 46.21223511 -98.04077148 46.63598633 C-99.77761323 47.39494433 -101.51004326 48.16397514 -103.2421875 48.93359375 C-106 50 -106 50 -109 50 C-109.495 50.99 -109.495 50.99 -110 52 C-111.64453125 52.67578125 -111.64453125 52.67578125 -113.8125 53.3125 C-117.6900277 54.52461392 -121.3894559 55.96490881 -125.125 57.5625 C-128.45469667 58.98283038 -131.682263 60.2806009 -135.1875 61.1875 C-136.115625 61.455625 -137.04375 61.72375 -138 62 C-138.495 62.99 -138.495 62.99 -139 64 C-141.3045052 64.63817067 -143.61496323 65.02037323 -145.96875 65.4375 C-146.6390625 65.623125 -147.309375 65.80875 -148 66 C-148.33 66.66 -148.66 67.32 -149 68 C-150.75 68.640625 -150.75 68.640625 -153 69.25 C-158.94491695 71.12084447 -164.84693296 74.1103574 -168.6328125 79.19140625 C-169.08398438 79.78824219 -169.53515625 80.38507813 -170 81 C-170.66 81 -171.32 81 -172 81 C-172.71372719 82.64706275 -173.36236461 84.32201212 -174 86 C-174.24944713 86.64831032 -174.49889425 87.29662064 -174.75590038 87.96457672 C-177.38863342 95.60914181 -177.45580684 103.00881957 -177.46411133 111.02148438 C-177.47642537 112.51411482 -177.49000047 114.00673531 -177.50473022 115.49934387 C-177.54065652 119.52614912 -177.55831362 123.55284013 -177.57197404 127.57977486 C-177.58889665 131.80987754 -177.62094952 136.03986998 -177.65080261 140.26989746 C-177.69857495 147.3711465 -177.73461684 154.47238069 -177.76342773 161.57373047 C-177.79678153 169.76384047 -177.84783374 177.95369255 -177.90858442 186.14364195 C-177.96687691 194.0479719 -178.01341668 201.95232834 -178.05438805 209.85676575 C-178.07191641 213.2090038 -178.09334578 216.56118257 -178.11795998 219.91337585 C-178.14639334 223.86639348 -178.1644252 227.81933093 -178.17469406 231.77243614 C-178.18003962 233.21633824 -178.18881038 234.66023272 -178.20141029 236.10408974 C-178.28250903 245.73249672 -178.14379747 255.12043398 -174 264 C-178.03647101 260.36717609 -179.80195344 257.37567991 -180.25726891 251.91391468 C-180.26062059 250.75161681 -180.26397228 249.58931894 -180.26742554 248.39179993 C-180.27195665 247.74121508 -180.27648776 247.09063024 -180.28115618 246.4203307 C-180.29378052 244.24800235 -180.2921811 242.07592535 -180.29052734 239.90356445 C-180.29651399 238.34271422 -180.30331985 236.78186695 -180.31088257 235.22102356 C-180.32853976 230.98523024 -180.33323794 226.74951775 -180.33451414 222.51369119 C-180.33593689 219.86441158 -180.34020893 217.21515244 -180.34550858 214.56587791 C-180.36401061 205.31482008 -180.37217931 196.06381986 -180.37060547 186.81274414 C-180.36940525 178.20412963 -180.39048359 169.59576632 -180.4220928 160.98721534 C-180.44829637 153.58573366 -180.458971 146.18433378 -180.45769465 138.7828061 C-180.45718605 134.36705487 -180.46281206 129.95152674 -180.48405075 125.53582191 C-180.50350111 121.37835543 -180.50351155 117.22132321 -180.48901749 113.06384087 C-180.48693641 111.54416388 -180.4915882 110.02445924 -180.5037384 108.50482941 C-180.6023825 95.30454437 -178.0064279 85.62366644 -169.125 75.5625 C-160.81523713 67.62521193 -147.96188718 63.59748509 -137.4375 59.5 C-135.48069262 58.72900015 -133.52490228 57.95545703 -131.56915283 57.18177795 C-130.19372787 56.63775788 -128.81803234 56.0944214 -127.44207764 55.55174255 C-119.93299493 52.58766809 -112.4522309 49.55444486 -104.97290039 46.51623535 C-102.61699445 45.55924808 -100.26069068 44.60324623 -97.90429688 43.64746094 C-90.44005208 40.61913229 -82.97831212 37.58472921 -75.51953125 34.54296875 C-59.26887771 27.91857082 -42.981181 21.40361569 -26.63012695 15.03051758 C-24.84876056 14.33255531 -23.07431792 13.61670452 -21.30664062 12.88476562 C-14.36600323 10.22252283 -7.51229655 12.10564598 -1 15 C-1 14.34 -1 13.68 -1 13 C-0.01 12.67 0.98 12.34 2 12 C1.44687265 7.97007218 0.8441938 3.97977076 0 0 Z " fill="#526472" transform="translate(682,371)"/>
<path d="M0 0 C1 2 1 2 0.07837296 5.18229866 C-1.00784685 9.02777974 -1.25147794 12.10186758 -1.25396729 16.08322144 C-1.25708727 16.76072201 -1.26020725 17.43822258 -1.26342177 18.13625348 C-1.27134609 20.3876386 -1.26510007 22.63874999 -1.25878906 24.89013672 C-1.26150145 26.51201535 -1.26506378 28.13389275 -1.26940918 29.75576782 C-1.27850737 34.14841036 -1.27499915 38.54095868 -1.26865101 42.93360281 C-1.26357598 47.53916261 -1.2682868 52.14471453 -1.27142334 56.75027466 C-1.27505933 64.4857121 -1.27027427 72.22111133 -1.26074219 79.95654297 C-1.24986604 88.88551841 -1.25337859 97.81440245 -1.264395 106.74337566 C-1.27348751 114.42173348 -1.27474332 122.10006387 -1.26951766 129.77842534 C-1.26640776 134.35891982 -1.26596145 138.93937144 -1.27259064 143.51986313 C-1.27839179 147.82910029 -1.27431674 152.13822033 -1.26280212 156.44744492 C-1.26016997 158.02397467 -1.26089577 159.60051438 -1.26532745 161.1770401 C-1.43742617 175.75524748 -1.43742617 175.75524748 3.6875 189.1875 C4.14511719 189.96480469 4.60273438 190.74210938 5.07421875 191.54296875 C9.79811278 197.57000596 15.58053597 201.14975573 22.484375 204.25 C23.30395691 204.62785645 24.12353882 205.00571289 24.96795654 205.39501953 C34.28691444 209.65646242 43.71284107 213.67840615 53.14477539 217.68185425 C58.53219053 219.96877364 63.91429398 222.26813761 69.296875 224.56640625 C70.91625977 225.25737144 70.91625977 225.25737144 72.56835938 225.96229553 C81.76872323 229.89169011 90.94296018 233.87906973 100.10775757 237.89059448 C112.47808314 243.3041604 124.8557519 248.70129954 137.27148438 254.01004028 C138.69181211 254.61820614 140.11127924 255.22838669 141.52978516 255.84078979 C151.11756226 259.97695197 159.43628506 263.31363777 170 263.125 C171.01900391 263.11146484 171.01900391 263.11146484 172.05859375 263.09765625 C173.70588741 263.07445493 175.35299526 263.03860167 177 263 C177 263.99 177 264.98 177 266 C169.36903158 266.23600933 162.41077918 265.8656507 155 264 C153.824375 263.71125 152.64875 263.4225 151.4375 263.125 C148.81289759 262.26603921 146.42875719 261.34834167 143.921875 260.22265625 C143.12966553 259.86719727 142.33745605 259.51173828 141.52124023 259.14550781 C138.99557138 257.99798789 136.47555721 256.83888674 133.95703125 255.67578125 C133.11076172 255.28712891 132.26449219 254.89847656 131.39257812 254.49804688 C129.65839633 253.70118968 127.92664912 252.89901471 126.19726562 252.09179688 C121.75474039 250.06257915 117.88699339 248.62338026 113 248 C111.5 246.625 111.5 246.625 110 245 C106.39273744 242.96111247 103.14003547 241.46000394 99 241 C98.34 241.33 97.68 241.66 97 242 C97 241.34 97 240.68 97 240 C96.01 240 95.02 240 94 240 C93.5875 239.566875 93.175 239.13375 92.75 238.6875 C88.69690333 234.77915679 82.38829446 233.40449044 77.11328125 231.74609375 C71.35690236 229.71380471 71.35690236 229.71380471 70 227 C68.12511739 226.15835291 68.12511739 226.15835291 65.875 225.5 C65.06933594 225.24605469 64.26367188 224.99210938 63.43359375 224.73046875 C60.29672121 223.78890348 57.156673 222.87312232 54 222 C54 221.34 54 220.68 54 220 C48.69905784 218.19695845 43.39691512 216.49276376 38 215 C38 214.34 38 213.68 38 213 C37.19175781 212.80664062 36.38351562 212.61328125 35.55078125 212.4140625 C34.48214844 212.15367187 33.41351563 211.89328125 32.3125 211.625 C31.25675781 211.36976563 30.20101562 211.11453125 29.11328125 210.8515625 C24.43320416 209.57144104 21.40419391 208.40419391 18 205 C15.89667109 204.28552357 15.89667109 204.28552357 14 204 C14 203.34 14 202.68 14 202 C13.236875 201.9175 12.47375 201.835 11.6875 201.75 C8.4032704 200.83347081 7.81392291 199.8033354 6 197 C5.27683594 196.29810547 5.27683594 196.29810547 4.5390625 195.58203125 C-4.72163396 186.06278742 -4.43994085 170.36237547 -4.37231445 158.04882812 C-4.37474808 156.48033915 -4.3784729 154.91185173 -4.38337708 153.34336853 C-4.39271168 149.11811719 -4.38342374 144.89310054 -4.37004495 140.66786766 C-4.35864829 136.2252338 -4.36284426 131.78261012 -4.36479187 127.33996582 C-4.36567227 119.88236706 -4.3546479 112.42485965 -4.33618164 104.96728516 C-4.31501798 96.37169651 -4.31150572 87.77624154 -4.3177436 79.18063211 C-4.32345817 70.87792622 -4.317767 62.57526692 -4.30657005 54.27256775 C-4.30195171 50.75454335 -4.30103814 47.2365477 -4.3031559 43.71852112 C-4.30505357 39.5684272 -4.29682248 35.41846736 -4.2810955 31.26840401 C-4.27688961 29.75441099 -4.27597686 28.24040426 -4.27878571 26.726408 C-4.30665597 9.00231815 -4.30665597 9.00231815 -2 1 C-1.34 0.67 -0.68 0.34 0 0 Z " fill="#4F5F69" transform="translate(338,374)"/>
<path d="M0 0 C-3.39356793 2.16010111 -6.63312318 3.704893 -10.4375 5 C-13.46274307 6.06226826 -16.25253238 7.12626619 -19.125 8.5625 C-21.56736957 9.78368479 -23.78649247 10.61868639 -26.375 11.4375 C-30.15597353 12.6471582 -33.54135789 14.21114939 -37.05859375 16.03515625 C-40.26924425 17.63079141 -43.62530858 18.80764549 -47 20 C-49.39591561 20.85393587 -51.79174226 21.70812133 -54.1875 22.5625 C-55.94126953 23.18318359 -55.94126953 23.18318359 -57.73046875 23.81640625 C-62.55169885 25.56172611 -67.27055671 27.52135536 -72 29.5 C-81.81238155 33.60518004 -81.81238155 33.60518004 -85.9375 34.9765625 C-95.9245376 38.31406741 -104.43653532 41.5612597 -111 50 C-111.66 50 -112.32 50 -113 50 C-119.63949543 62.58052337 -118.38956359 76.5615336 -118.29296875 90.359375 C-118.28736538 92.71876759 -118.28309879 95.07816369 -118.28010559 97.43756104 C-118.26871518 103.61232335 -118.23929839 109.78687004 -118.20599365 115.96154785 C-118.17516707 122.27641891 -118.16157346 128.5913252 -118.14648438 134.90625 C-118.11442277 147.27092746 -118.06329732 159.63544572 -118 172 C-118.66 172 -119.32 172 -120 172 C-120.07023042 157.81325458 -120.12285693 143.62653631 -120.15543652 129.43965244 C-120.1710751 122.85171531 -120.19228071 116.26389519 -120.22631836 109.67602539 C-120.25897574 103.31531058 -120.27686661 96.95470814 -120.28463173 90.59391594 C-120.29016374 88.17029998 -120.30096639 85.74668999 -120.31719017 83.32312202 C-120.33904874 79.92174232 -120.34196334 76.5208237 -120.34057617 73.11938477 C-120.351362 72.12316101 -120.36214783 71.12693726 -120.3732605 70.1005249 C-120.34572342 63.83770605 -119.28727302 58.81213981 -117 53 C-116.608125 51.80375 -116.21625 50.6075 -115.8125 49.375 C-111.69414176 41.70633293 -104.59721184 37.86505207 -96.75 34.75 C-95.84435303 34.37633301 -94.93870605 34.00266602 -94.00561523 33.61767578 C-91.01159568 32.39123423 -88.00771174 31.19244297 -85 30 C-83.9785791 29.59297852 -82.9571582 29.18595703 -81.90478516 28.76660156 C-75.64890675 26.2796849 -69.38034542 23.82619584 -63.10693359 21.38389587 C-55.19812107 18.30228605 -47.30452672 15.18208187 -39.41012573 12.06378174 C-36.92993694 11.08419808 -34.44949456 10.10525909 -31.96899414 9.12646484 C-30.41422198 8.51270362 -28.85945301 7.89893432 -27.3046875 7.28515625 C-26.56643738 6.99394394 -25.82818726 6.70273163 -25.06756592 6.4026947 C-20.33148529 4.53255955 -15.60606204 2.63797983 -10.89477539 0.70605469 C-6.89614955 -0.78396283 -4.0467092 -1.34890307 0 0 Z " fill="#97B0BE" transform="translate(639,413)"/>
<path d="M0 0 C0 0.66 0 1.32 0 2 C-3.95552103 3.83944626 -7.91486285 5.67051553 -11.875 7.5 C-13.56689453 8.28697266 -13.56689453 8.28697266 -15.29296875 9.08984375 C-16.36933594 9.58613281 -17.44570313 10.08242188 -18.5546875 10.59375 C-20.04718018 11.28500977 -20.04718018 11.28500977 -21.56982422 11.99023438 C-24 13 -24 13 -26 13 C-26.33 13.66 -26.66 14.32 -27 15 C-28.98300156 15.71564603 -30.98876841 16.36802536 -33 17 C-36.2469145 18.22619367 -39.46644642 19.52009637 -42.6875 20.8125 C-43.57800049 21.16924805 -44.46850098 21.52599609 -45.38598633 21.89355469 C-51.67299112 24.42831353 -57.86557596 27.11443336 -64 30 C-69.34033337 32.47848527 -74.59698997 34.6206394 -80.25 36.2890625 C-82.20448363 36.85868729 -82.20448363 36.85868729 -83 39 C-84.85546875 39.74609375 -84.85546875 39.74609375 -87.1875 40.4375 C-92.22407586 42.02294041 -96.59653652 44.06435768 -101 47 C-101.99 47 -102.98 47 -104 47 C-109.34444174 48.87945404 -109.34444174 48.87945404 -113 53 C-113 52.34 -113 51.68 -113 51 C-113.65073486 51.2673999 -114.30146973 51.5347998 -114.97192383 51.81030273 C-117.91836533 53.0203873 -120.8654244 54.2289606 -123.8125 55.4375 C-124.83666016 55.85837891 -125.86082031 56.27925781 -126.91601562 56.71289062 C-127.89892578 57.11572266 -128.88183594 57.51855469 -129.89453125 57.93359375 C-130.80050049 58.30540771 -131.70646973 58.67722168 -132.63989258 59.06030273 C-138.04973976 61.21428037 -141.59792342 61.27690831 -147 59 C-149.82208606 56.66111265 -152.1417239 54.16683709 -154 51 C-154 49.68 -154 48.36 -154 47 C-154.66 47 -155.32 47 -156 47 C-155.67 42.38 -155.34 37.76 -155 33 C-154.34 33 -153.68 33 -153 33 C-152.97421875 34.00160156 -152.9484375 35.00320313 -152.921875 36.03515625 C-152.61898574 46.1803772 -152.61898574 46.1803772 -148 55 C-143.68059668 57.87960221 -140.07194285 57.6056975 -135 57 C-131.1775688 55.88982934 -127.62276088 54.32612223 -124 52.6875 C-121.85937633 51.75780945 -119.71875128 50.82812205 -117.578125 49.8984375 C-116.48564453 49.41600586 -115.39316406 48.93357422 -114.26757812 48.43652344 C-109.11851646 46.1728445 -103.93321405 43.99653215 -98.75 41.8125 C-97.17351685 41.14395996 -97.17351685 41.14395996 -95.56518555 40.46191406 C-86.78209152 36.73806309 -77.97488734 33.07379362 -69.16467285 29.41470337 C-36.07991994 16.10931247 -36.07991994 16.10931247 -3.87768555 0.88671875 C-2 0 -2 0 0 0 Z " fill="#2A353F" transform="translate(672,575)"/>
<path d="M0 0 C0.33 0.66 0.66 1.32 1 2 C0.01789629 4.0088485 -0.98440599 6.00787329 -2 8 C-2.81595134 11.30088262 -3.12539218 14.37019864 -3.12698364 17.76383972 C-3.12980347 18.69337967 -3.13262329 19.62291962 -3.13552856 20.58062744 C-3.13350433 21.58809021 -3.1314801 22.59555298 -3.12939453 23.63354492 C-3.13114685 24.70395523 -3.13289917 25.77436554 -3.13470459 26.87721252 C-3.13910235 30.4116478 -3.13619301 33.94603297 -3.1328125 37.48046875 C-3.13348599 39.9347586 -3.13445639 42.38904839 -3.13571167 44.84333801 C-3.1371857 49.98369991 -3.13504295 55.12404442 -3.13037109 60.2644043 C-3.12466498 66.86566388 -3.12796026 73.46688288 -3.13394356 80.06814098 C-3.13754942 85.13373625 -3.13641062 90.19932182 -3.13381577 95.26491737 C-3.13314703 97.69988319 -3.13397306 100.13484988 -3.13629532 102.56981468 C-3.1388232 105.96477991 -3.13497969 109.35967844 -3.12939453 112.75463867 C-3.13141876 113.76817413 -3.13344299 114.78170959 -3.13552856 115.82595825 C-3.13129883 117.20757896 -3.13129883 117.20757896 -3.12698364 118.61711121 C-3.1264181 119.82137143 -3.1264181 119.82137143 -3.12584114 121.04996014 C-3.12164976 123.08060497 -3.12164976 123.08060497 -2 125 C-3.32 124.67 -4.64 124.34 -6 124 C-6.06058594 123.35933594 -6.12117187 122.71867188 -6.18359375 122.05859375 C-6.57052714 118.06425057 -6.98585484 114.09744444 -7.5625 110.125 C-8.01710128 106.87784801 -8.21507421 103.97978249 -7.5078125 100.7578125 C-6.83917842 97.12661512 -6.85490455 93.55246749 -6.875 89.875 C-6.86919922 88.80185547 -6.86919922 88.80185547 -6.86328125 87.70703125 C-6.86920346 84.53865016 -6.99103382 82.02689855 -8 79 C-7.70740515 76.99363529 -7.37366113 74.99285937 -7 73 C-7 72.01 -7 71.02 -7 70 C-6.98866349 68.47916377 -6.97689688 66.95833072 -6.96484375 65.4375 C-6.95554207 63.62500095 -6.94643486 61.81250089 -6.9375 60 C-6.92912109 59.08476563 -6.92074219 58.16953125 -6.91210938 57.2265625 C-6.90888672 56.34742188 -6.90566406 55.46828125 -6.90234375 54.5625 C-6.89710693 53.75941406 -6.89187012 52.95632813 -6.88647461 52.12890625 C-6.9157026 49.81078938 -6.9157026 49.81078938 -8 47 C-8.00420738 45.40540474 -7.94450318 43.81016463 -7.84375 42.21875 C-7.79089844 41.29449219 -7.73804688 40.37023437 -7.68359375 39.41796875 C-7.56119792 37.47265625 -7.43880208 35.52734375 -7.31640625 33.58203125 C-7.26355469 32.65777344 -7.21070313 31.73351562 -7.15625 30.78125 C-7.10275391 29.93626953 -7.04925781 29.09128906 -6.99414062 28.22070312 C-6.88434888 25.82408077 -6.88434888 25.82408077 -8 23 C-7.50244944 20.15933343 -6.9301415 17.42113729 -6.25 14.625 C-6.07984375 13.86960937 -5.9096875 13.11421875 -5.734375 12.3359375 C-4.64298604 7.74568395 -3.44574207 3.44574207 0 0 Z " fill="#586A77" transform="translate(523,462)"/>
<path d="M0 0 C0.99 0.495 0.99 0.495 2 1 C2.81763618 3.50662185 3.50708576 5.94350881 4.125 8.5 C4.30385742 9.22380859 4.48271484 9.94761719 4.66699219 10.69335938 C5.89350446 15.91246112 6.38375645 20.6274097 6 26 C4.515 25.505 4.515 25.505 3 25 C2.5359375 23.824375 2.5359375 23.824375 2.0625 22.625 C0.78811493 19.47651925 -0.0408586 18.63531499 -3 17 C-15.17941519 12.72652099 -25.94264609 17.07234339 -37.3125 21.6875 C-38.63686565 22.21156229 -39.96173443 22.73435492 -41.28710938 23.25585938 C-45.2048547 24.80498802 -49.10424839 26.39649767 -53 28 C-53.67109802 28.27410706 -54.34219604 28.54821411 -55.03363037 28.83062744 C-56.99844014 29.6357476 -58.95878918 30.45081945 -60.91796875 31.26953125 C-62.06418701 31.74624268 -63.21040527 32.2229541 -64.39135742 32.71411133 C-67.11749682 33.73122253 -67.11749682 33.73122253 -68 36 C-69.63969638 36.21905153 -71.28013649 36.43353917 -72.92333984 36.62451172 C-76.76890434 37.31984186 -80.24962731 39.00200502 -83.8125 40.5625 C-91.77054795 44 -91.77054795 44 -94 44 C-94 43.34 -94 42.68 -94 42 C-71.72344602 32.92240364 -49.41036146 23.94971378 -27.00976562 15.18237305 C-25.082997 14.42545056 -23.1620995 13.65329794 -21.24926758 12.86181641 C-14.33849127 10.21392317 -7.4777646 12.12099351 -1 15 C-1 14.34 -1 13.68 -1 13 C-0.01 12.67 0.98 12.34 2 12 C1.44687265 7.97007218 0.8441938 3.97977076 0 0 Z " fill="#51626F" transform="translate(682,371)"/>
<path d="M0 0 C0 4.01153138 -1.73113092 6.32484905 -3.7109375 9.74609375 C-7.492013 19.29044495 -7.30375212 29.73884967 -7.31884766 39.85644531 C-7.32816933 41.30647832 -7.33834125 42.75650607 -7.34928894 44.20652771 C-7.37635095 48.10444207 -7.39166683 52.00232078 -7.40471697 55.90030384 C-7.42045288 59.98824415 -7.44720916 64.07611276 -7.4727478 68.16400146 C-7.51935182 75.8877971 -7.55618427 83.6116065 -7.58942068 91.33546996 C-7.62777271 100.13610904 -7.67714817 108.93667578 -7.72740483 117.73725367 C-7.83045101 135.82478268 -7.91979937 153.91235597 -8 172 C-8.33 172 -8.66 172 -9 172 C-9.07010783 151.78104469 -9.12299689 131.56211409 -9.15543652 111.3430624 C-9.17089972 101.95482251 -9.19197882 92.56665818 -9.22631836 83.1784668 C-9.25623741 74.9948975 -9.27557898 66.81138294 -9.28226548 58.62776047 C-9.28617349 54.29532951 -9.2953465 49.96305511 -9.31719017 45.63067436 C-9.33759492 41.55051773 -9.34382576 37.47058176 -9.33932304 33.39037895 C-9.34014646 31.89524129 -9.34608841 30.40009604 -9.35761642 28.90500259 C-9.45816607 15.18844694 -9.45816607 15.18844694 -6 9 C-5.87625 8.29875 -5.7525 7.5975 -5.625 6.875 C-4.61374041 3.84122122 -2.30320426 2.1260347 0 0 Z " fill="#C4ECFE" transform="translate(509,449)"/>
<path d="M0 0 C0.33 0 0.66 0 1 0 C1.01030746 0.67207489 1.02061493 1.34414978 1.03123474 2.03659058 C1.13915023 9.01163764 1.2537601 15.98655159 1.37231445 22.96142578 C1.41571137 25.56686629 1.45738286 28.17233611 1.49731445 30.77783203 C1.55490192 34.51604056 1.6186294 38.25410082 1.68359375 41.9921875 C1.70030624 43.16304901 1.71701874 44.33391052 1.73423767 45.54025269 C1.75418289 46.62122223 1.77412811 47.70219177 1.79467773 48.81591797 C1.81022202 49.77078094 1.8257663 50.72564392 1.84178162 51.70944214 C1.85454632 54.02952228 1.85454632 54.02952228 3 56 C1.68 55.67 0.36 55.34 -1 55 C-1.06058594 54.35933594 -1.12117187 53.71867188 -1.18359375 53.05859375 C-1.57052714 49.06425057 -1.98585484 45.09744444 -2.5625 41.125 C-3.01710128 37.87784801 -3.21507421 34.97978249 -2.5078125 31.7578125 C-1.83917842 28.12661512 -1.85490455 24.55246749 -1.875 20.875 C-1.86919922 19.80185547 -1.86919922 19.80185547 -1.86328125 18.70703125 C-1.86920346 15.53865016 -1.99103382 13.02689855 -3 10 C-2.44140625 7.51953125 -2.44140625 7.51953125 -1.5625 4.8125 C-1.27503906 3.91144531 -0.98757813 3.01039063 -0.69140625 2.08203125 C-0.46324219 1.39496094 -0.23507812 0.70789063 0 0 Z " fill="#556774" transform="translate(518,531)"/>
<path d="M0 0 C0.33 0.66 0.66 1.32 1 2 C0.34 1.67 -0.32 1.34 -1 1 C-0.67 0.67 -0.34 0.34 0 0 Z M-3 1 C-2.34 1.33 -1.68 1.66 -1 2 C-1.29686203 2.56249451 -1.59372406 3.12498901 -1.89958191 3.70452881 C-7.67920084 15.76080894 -6.38402909 29.35209443 -6.29296875 42.359375 C-6.28736538 44.71876759 -6.28309879 47.07816369 -6.28010559 49.43756104 C-6.26871518 55.61232335 -6.23929839 61.78687004 -6.20599365 67.96154785 C-6.17516707 74.27641891 -6.16157346 80.5913252 -6.14648438 86.90625 C-6.11442277 99.27092746 -6.06329732 111.63544572 -6 124 C-6.66 124 -7.32 124 -8 124 C-8.07023042 109.81325458 -8.12285693 95.62653631 -8.15543652 81.43965244 C-8.1710751 74.85171531 -8.19228071 68.26389519 -8.22631836 61.67602539 C-8.25897574 55.31531058 -8.27686661 48.95470814 -8.28463173 42.59391594 C-8.29016374 40.17029998 -8.30096639 37.74668999 -8.31719017 35.32312202 C-8.33904874 31.92174232 -8.34196334 28.5208237 -8.34057617 25.11938477 C-8.351362 24.12316101 -8.36214783 23.12693726 -8.3732605 22.1005249 C-8.33868793 14.23760886 -6.58815034 7.96504107 -3 1 Z " fill="#ADDBFA" transform="translate(527,461)"/>
<path d="M0 0 C3.70885829 1.54040577 7.41698924 3.08255529 11.125 4.625 C12.22199219 5.08068359 13.31898438 5.53636719 14.44921875 6.00585938 C20.32438101 8.45095347 26.17500149 10.93802035 32 13.5 C41.95066274 17.72873302 50.27343603 18.25140384 61 18 C61 18.99 61 19.98 61 21 C53.36903158 21.23600933 46.41077918 20.8656507 39 19 C37.824375 18.71125 36.64875 18.4225 35.4375 18.125 C32.8110123 17.26542221 30.43554727 16.34590112 27.9296875 15.21484375 C27.13780029 14.8590625 26.34591309 14.50328125 25.5300293 14.13671875 C24.69511963 13.76160156 23.86020996 13.38648438 23 13 C21.29596096 12.2478182 19.59152853 11.49652704 17.88671875 10.74609375 C16.15353739 9.97680677 14.4204651 9.20727401 12.6875 8.4375 C11.36782227 7.85838867 11.36782227 7.85838867 10.02148438 7.26757812 C9.17263672 6.88923828 8.32378906 6.51089844 7.44921875 6.12109375 C6.68955811 5.7852124 5.92989746 5.44933105 5.1472168 5.10327148 C2.8885681 3.94274466 0.98550723 2.57675117 -1 1 C-0.67 0.67 -0.34 0.34 0 0 Z " fill="#37434E" transform="translate(454,619)"/>
<path d="M0 0 C2.0625 1.5625 2.0625 1.5625 3 4 C3 8.06681169 2.49636398 10.30509043 0.125 13.625 C-6.70043404 18.81232987 -14.88593988 21.4726698 -23 24 C-23 23.34 -23 22.68 -23 22 C-22.37432129 21.74307373 -21.74864258 21.48614746 -21.10400391 21.22143555 C-18.27364279 20.05294508 -15.44935561 18.87042816 -12.625 17.6875 C-11.14773438 17.08131836 -11.14773438 17.08131836 -9.640625 16.46289062 C-8.69960938 16.06650391 -7.75859375 15.67011719 -6.7890625 15.26171875 C-5.91975098 14.90037842 -5.05043945 14.53903809 -4.15478516 14.16674805 C-1.69810584 13.0536781 -1.69810584 13.0536781 0 10 C-0.35515029 7.15879766 -1.09349251 4.71952248 -2 2 C-4.97 2.66 -7.94 3.32 -11 4 C-10.67 3.01 -10.34 2.02 -10 1 C-6.80269021 -0.5986549 -3.47025813 -0.49575116 0 0 Z " fill="#4A5D6D" transform="translate(609,551)"/>
<path d="M0 0 C1.68359375 1.01635742 1.68359375 1.01635742 4.05859375 3.20385742 C4.05859375 4.19385742 4.05859375 5.18385742 4.05859375 6.20385742 C3.06859375 5.54385742 2.07859375 4.88385742 1.05859375 4.20385742 C0.39859375 4.20385742 -0.26140625 4.20385742 -0.94140625 4.20385742 C-0.94140625 3.21385742 -0.94140625 2.22385742 -0.94140625 1.20385742 C-6.88662389 0.77147796 -10.56938674 1.58669623 -15.86328125 4.32885742 C-17.94140625 5.20385742 -17.94140625 5.20385742 -21.94140625 5.20385742 C-21.94140625 5.86385742 -21.94140625 6.52385742 -21.94140625 7.20385742 C-22.47765625 7.32760742 -23.01390625 7.45135742 -23.56640625 7.57885742 C-26.07457533 8.19603855 -26.07457533 8.19603855 -28.94140625 9.32885742 C-32.02728135 10.22890433 -32.99628851 10.10516501 -35.94140625 9.20385742 C-32.16251925 7.50710377 -28.36661073 5.85224623 -24.56640625 4.20385742 C-23.50550781 3.7269043 -22.44460938 3.24995117 -21.3515625 2.75854492 C-14.54306562 -0.16534944 -7.28422209 -2.98715395 0 0 Z " fill="#B9DBED" transform="translate(677.94140625,400.796142578125)"/>
<path d="M0 0 C0.66 0 1.32 0 2 0 C2.02578125 1.00160156 2.0515625 2.00320313 2.078125 3.03515625 C2.38101426 13.1803772 2.38101426 13.1803772 7 22 C10.16240582 24.10827055 11.50657469 24.33817465 15.1875 24.625 C16.08855469 24.69976563 16.98960937 24.77453125 17.91796875 24.8515625 C18.60503906 24.90054688 19.29210937 24.94953125 20 25 C19.67 25.99 19.34 26.98 19 28 C12.77370425 27.54963503 8.13312287 26.90791173 3.8125 22.125 C1.24614394 18.96363398 1 18.28660969 1 14 C0.34 14 -0.32 14 -1 14 C-0.67 9.38 -0.34 4.76 0 0 Z " fill="#36434B" transform="translate(517,608)"/>
<path d="M0 0 C0.66 0.33 1.32 0.66 2 1 C2.81763618 3.50662185 3.50708576 5.94350881 4.125 8.5 C4.30385742 9.22380859 4.48271484 9.94761719 4.66699219 10.69335938 C5.89350446 15.91246112 6.38375645 20.6274097 6 26 C5.01 25.67 4.02 25.34 3 25 C3.1546875 23.9171875 3.1546875 23.9171875 3.3125 22.8125 C2.87550935 18.87958411 0.89917803 17.53678077 -2 15 C-1.2884375 14.38125 -1.2884375 14.38125 -0.5625 13.75 C1.24345568 11.72732964 1.76234011 10.69347874 2 8 C1.38325228 6.31422289 0.71727778 4.64551962 0 3 C0 2.01 0 1.02 0 0 Z " fill="#7991A1" transform="translate(682,371)"/>
<path d="M0 0 C0 0.66 0 1.32 0 2 C-2.046875 3.33203125 -2.046875 3.33203125 -4.75 4.8125 C-8.74851379 7.11108067 -11.31203733 9.19205288 -14 13 C-14.66 13 -15.32 13 -16 13 C-17.53445628 16.72554925 -18.86360758 20.48627631 -20.125 24.3125 C-20.47820312 25.38113281 -20.83140625 26.44976562 -21.1953125 27.55078125 C-21.59363281 28.76314453 -21.59363281 28.76314453 -22 30 C-22.66 29.67 -23.32 29.34 -24 29 C-21.78144476 17.90722378 -16.40659543 9.13543238 -7 2.61328125 C-2.59868421 0 -2.59868421 0 0 0 Z " fill="#44525F" transform="translate(526,439)"/>
<path d="M0 0 C1.9715058 1.54609968 3.37892925 3.06517362 5 5 C4.67 5.99 4.34 6.98 4 8 C3.4225 7.21625 2.845 6.4325 2.25 5.625 C-0.34412541 2.59852036 -2.22804905 1.30495533 -6.15625 0.62890625 C-12.74793712 0.44214178 -17.51471374 2.15636163 -23.43359375 5.00390625 C-26 6 -26 6 -29 5 C-24.69235422 2.94010322 -20.36184127 0.94258266 -16 -1 C-15.30519531 -1.31324219 -14.61039063 -1.62648438 -13.89453125 -1.94921875 C-8.88345311 -3.8179581 -4.56091572 -2.33587086 0 0 Z " fill="#5D7181" transform="translate(680,400)"/>
<path d="M0 0 C3.1027557 1.74530008 5.89738013 3.67912473 8.6875 5.875 C13.13227612 9.27444636 17.93738405 11.65542786 23 14 C23 14.66 23 15.32 23 16 C20.6875 16.1875 20.6875 16.1875 18 16 C16.4375 14.5625 16.4375 14.5625 15 13 C12.89667109 12.28552357 12.89667109 12.28552357 11 12 C11 11.34 11 10.68 11 10 C10.236875 9.9175 9.47375 9.835 8.6875 9.75 C5.4032704 8.83347081 4.81392291 7.8033354 3 5 C2.443125 4.46375 1.88625 3.9275 1.3125 3.375 C0 2 0 2 0 0 Z " fill="#404F5B" transform="translate(341,566)"/>
<path d="M0 0 C0.66 0.66 1.32 1.32 2 2 C0.9375 3.4375 0.9375 3.4375 -1 5 C-2.01320313 5.12375 -3.02640625 5.2475 -4.0703125 5.375 C-8.71448525 6.11363583 -12.52988924 7.68676849 -16.8125 9.5625 C-24.77054795 13 -24.77054795 13 -27 13 C-27 12.34 -27 11.68 -27 11 C-18.09 7.37 -9.18 3.74 0 0 Z " fill="#5A6B7A" transform="translate(615,402)"/>
<path d="M0 0 C2.171875 0.4609375 2.171875 0.4609375 4.75 1.375 C11.87970112 3.54740558 18.61140058 3.26922022 26 3 C26 3.99 26 4.98 26 6 C15.73665227 6.31742313 6.78305659 4.97745201 -3 2 C-2.01 1.34 -1.02 0.68 0 0 Z " fill="#43515C" transform="translate(489,634)"/>
<path d="M0 0 C-2.4566947 1.00419637 -4.91518353 2.00350501 -7.375 3 C-8.42300781 3.42925781 -8.42300781 3.42925781 -9.4921875 3.8671875 C-14.7734375 6 -14.7734375 6 -17 6 C-17 7.98 -17 9.96 -17 12 C-17.66 12 -18.32 12 -19 12 C-19 14.64 -19 17.28 -19 20 C-21.58675384 16.11986924 -20.79830401 14.47050246 -20 10 C-20 9.01 -20 8.02 -20 7 C-19.34 6.67 -18.68 6.34 -18 6 C-17.67 5.34 -17.34 4.68 -17 4 C-14.93251357 3.0224855 -12.81941574 2.14012914 -10.6875 1.3125 C-9.53636719 0.85488281 -8.38523437 0.39726563 -7.19921875 -0.07421875 C-4.13717158 -0.96030566 -2.88822927 -1.176686 0 0 Z " fill="#485B6A" transform="translate(536,596)"/>
<path d="M0 0 C8.06911983 1.73211473 15.77945968 3.89526507 23 8 C23.66666667 9.33333333 24.33333333 10.66666667 25 12 C21.1509323 11.47985572 19.64257753 10.74828063 17 8 C13.39273744 5.96111247 10.14003547 4.46000394 6 4 C5.01 4.495 5.01 4.495 4 5 C4 4.34 4 3.68 4 3 C3.01 3 2.02 3 1 3 C0.67 2.01 0.34 1.02 0 0 Z " fill="#536674" transform="translate(431,611)"/>
<path d="M0 0 C0.66 0 1.32 0 2 0 C2.75336689 4.23768878 3.13457598 8.3821842 3.25 12.6875 C3.27578125 13.59886719 3.3015625 14.51023437 3.328125 15.44921875 C2.94397067 18.43556137 1.97732722 19.77810862 0 22 C0 14.66666667 0 7.33333333 0 0 Z " fill="#617482" transform="translate(516,513)"/>
<path d="M0 0 C-2.97 0.99 -5.94 1.98 -9 3 C-9 3.66 -9 4.32 -9 5 C-13.62197306 7.21854707 -16.76824163 8.38281159 -22 8 C-18.8145565 4.49356181 -15.36539702 3.35012774 -11 1.75 C-10.27554687 1.46898437 -9.55109375 1.18796875 -8.8046875 0.8984375 C-3.37524499 -1.12508166 -3.37524499 -1.12508166 0 0 Z " fill="#92A4B0" transform="translate(379,348)"/>
<path d="M0 0 C7.21789902 1.92581687 14.54748145 4.15893633 21 8 C21.33 8.99 21.66 9.98 22 11 C21.0925 10.690625 20.185 10.38125 19.25 10.0625 C16.83436662 9.2727737 14.47219715 8.57050703 12 8 C12 7.34 12 6.68 12 6 C6.06 4.515 6.06 4.515 0 3 C0 2.01 0 1.02 0 0 Z " fill="#3E4E5A" transform="translate(364,581)"/>
<path d="M0 0 C0 3.40165928 -0.72154683 4.52723127 -2.375 7.4375 C-5.33586842 13.11599269 -6.27318474 18.68647041 -7 25 C-8.73462305 21.71734682 -9.43647268 19.75366502 -9 16 C-8.05007438 13.64583651 -7.05047644 11.31104818 -6 9 C-5.87625 8.29875 -5.7525 7.5975 -5.625 6.875 C-4.61374041 3.84122122 -2.30320426 2.1260347 0 0 Z " fill="#B7D9E9" transform="translate(509,449)"/>
<path d="M0 0 C6.93998648 2.16163513 13.43117569 4.8936214 20 8 C16.57056481 9.18771723 14.62215325 8.80226223 11.25 7.5625 C10.45078125 7.27503906 9.6515625 6.98757813 8.828125 6.69140625 C7.92320312 6.34916016 7.92320312 6.34916016 7 6 C7 5.34 7 4.68 7 4 C6.030625 3.71125 5.06125 3.4225 4.0625 3.125 C1 2 1 2 0 0 Z " fill="#34414B" transform="translate(385,590)"/>
<path d="M0 0 C-1.32 0.33 -2.64 0.66 -4 1 C-4 1.66 -4 2.32 -4 3 C-6.22844214 3.6483289 -8.4577846 4.29356369 -10.6875 4.9375 C-12.54955078 5.47697266 -12.54955078 5.47697266 -14.44921875 6.02734375 C-17.29639862 6.80726431 -20.09802254 7.47287216 -23 8 C-21.16050486 4.32100973 -16.33001384 3.66002326 -12.625 2.3125 C-11.31015625 1.81266602 -11.31015625 1.81266602 -9.96875 1.30273438 C-9.12570312 0.99271484 -8.28265625 0.68269531 -7.4140625 0.36328125 C-6.6401416 0.07751221 -5.8662207 -0.20825684 -5.06884766 -0.50268555 C-3 -1 -3 -1 0 0 Z " fill="#E0F1F7" transform="translate(406,339)"/>
<path d="M0 0 C0.33 0.66 0.66 1.32 1 2 C0.34 1.67 -0.32 1.34 -1 1 C-0.67 0.67 -0.34 0.34 0 0 Z M-3 1 C-2.34 1.33 -1.68 1.66 -1 2 C-1.29648437 2.53109375 -1.59296875 3.0621875 -1.8984375 3.609375 C-3.20328799 6.44117818 -3.90018352 9.21894926 -4.625 12.25 C-4.88539063 13.32765625 -5.14578125 14.4053125 -5.4140625 15.515625 C-5.60742188 16.33546875 -5.80078125 17.1553125 -6 18 C-7.45710076 15.67708575 -8.09353244 14.53126428 -7.609375 11.78125 C-7.32578125 11.0284375 -7.0421875 10.275625 -6.75 9.5 C-6.47671875 8.7471875 -6.2034375 7.994375 -5.921875 7.21875 C-5.03745605 5.09014845 -4.06018689 3.04597469 -3 1 Z " fill="#AED3E7" transform="translate(527,461)"/>
<path d="M0 0 C0 0.66 0 1.32 0 2 C-2.01171875 3.33203125 -2.01171875 3.33203125 -4.6875 4.8125 C-8.78731821 7.17934541 -11.87859959 9.46241287 -15 13 C-14.44846785 9.26275228 -13.03850239 7.7764009 -10.1875 5.375 C-9.50042969 4.78460938 -8.81335938 4.19421875 -8.10546875 3.5859375 C-5.50795308 1.62936726 -3.31398755 0 0 0 Z " fill="#4D5B69" transform="translate(526,439)"/>
<path d="M0 0 C0.99 0 1.98 0 3 0 C3 1.98 3 3.96 3 6 C2.34 6 1.68 6 1 6 C1 8.64 1 11.28 1 14 C-1.58675384 10.11986924 -0.79830401 8.47050246 0 4 C0 3.01 0 2.02 0 1 C0 0.67 0 0.34 0 0 Z " fill="#5C7282" transform="translate(516,602)"/>
<path d="M0 0 C0.66 0.33 1.32 0.66 2 1 C2 1.66 2 2.32 2 3 C1.46375 3.12375 0.9275 3.2475 0.375 3.375 C-2.13316908 3.99218113 -2.13316908 3.99218113 -5 5.125 C-8.0858751 6.0250469 -9.05488226 5.90130758 -12 5 C-10.04578965 4.13644222 -8.08648653 3.28440066 -6.125 2.4375 C-5.03445313 1.96183594 -3.94390625 1.48617188 -2.8203125 0.99609375 C-1.88960937 0.66738281 -0.95890625 0.33867187 0 0 Z " fill="#C3E1EE" transform="translate(654,405)"/>
<path d="M0 0 C-0.66 0 -1.32 0 -2 0 C-2 0.66 -2 1.32 -2 2 C-3.60064843 2.53154742 -5.20568874 3.04988353 -6.8125 3.5625 C-7.70582031 3.85253906 -8.59914063 4.14257812 -9.51953125 4.44140625 C-12 5 -12 5 -15 4 C-13.06767179 3.13419713 -11.12892806 2.28270059 -9.1875 1.4375 C-8.10855469 0.96183594 -7.02960938 0.48617188 -5.91796875 -0.00390625 C-3 -1 -3 -1 0 0 Z " fill="#DEEFF5" transform="translate(489,307)"/>
<path d="M0 0 C4.50884026 2.31883213 6.93906776 5.06451569 10 9 C9.01 9.495 9.01 9.495 8 10 C6.33333333 8.33333333 4.66666667 6.66666667 3 5 C2.401875 4.443125 1.80375 3.88625 1.1875 3.3125 C0 2 0 2 0 0 Z " fill="#536675" transform="translate(341,566)"/>
<path d="M0 0 C0.33 0.66 0.66 1.32 1 2 C0.01789629 4.0088485 -0.98440599 6.00787329 -2 8 C-2.69907414 10.73572585 -2.69907414 10.73572585 -3 13 C-4.1875 11.4375 -4.1875 11.4375 -5 9 C-3.75242879 5.38204349 -2.71982714 2.71982714 0 0 Z " fill="#556977" transform="translate(523,462)"/>
<path d="M0 0 C0.33 0 0.66 0 1 0 C1.22786458 2.01822917 1.45572917 4.03645833 1.68359375 6.0546875 C1.91292961 8.07404316 1.91292961 8.07404316 3 10 C1.68 9.67 0.36 9.34 -1 9 C-1.625 6.1875 -1.625 6.1875 -2 3 C-1.34 2.01 -0.68 1.02 0 0 Z " fill="#475763" transform="translate(518,577)"/>
<path d="M0 0 C-4.95 1.485 -4.95 1.485 -10 3 C-9 0 -9 0 -6.6875 -1.3125 C-4 -2 -4 -2 0 0 Z M-13 3 C-10 4 -10 4 -10 4 Z " fill="#C2DFEE" transform="translate(600,430)"/>
<path d="M0 0 C4.43090471 1.20842856 6.98112756 2.51668565 10 6 C9.67 6.99 9.34 7.98 9 9 C6 6 3 3 0 0 Z " fill="#455563" transform="translate(676,385)"/>
<path d="M0 0 C2.02558881 3.34939881 2.21738987 5.86962551 2.125 9.75 C2.10695313 10.73484375 2.08890625 11.7196875 2.0703125 12.734375 C2.04710937 13.48203125 2.02390625 14.2296875 2 15 C1.67 15 1.34 15 1 15 C0.63536268 13.25215171 0.2836922 11.50159498 -0.0625 9.75 C-0.25972656 8.77546875 -0.45695313 7.8009375 -0.66015625 6.796875 C-0.98397535 4.131881 -0.85503199 2.51128277 0 0 Z " fill="#657986" transform="translate(516,481)"/>
<path d="M0 0 C-1.98 0.66 -3.96 1.32 -6 2 C-6 2.66 -6 3.32 -6 4 C-7.65 4 -9.3 4 -11 4 C-8.32997607 0.73663741 -4.08378642 -2.04189321 0 0 Z " fill="#E2F3F8" transform="translate(418,334)"/>
<path d="M0 0 C1.22589844 0.01353516 1.22589844 0.01353516 2.4765625 0.02734375 C3.41628906 0.04474609 3.41628906 0.04474609 4.375 0.0625 C3.03125 1.578125 3.03125 1.578125 1.375 3.0625 C-1.49868492 2.77513151 -3.88290144 1.97653285 -6.625 1.0625 C-4.21954362 -0.14022819 -2.67503047 -0.03821472 0 0 Z " fill="#99B2C1" transform="translate(639.625,410.9375)"/>
<path d="M0 0 C0.66 0.66 1.32 1.32 2 2 C1.34 2 0.68 2 0 2 C0 1.34 0 0.68 0 0 Z " fill="#768FA3" transform="translate(509,632)"/>
<path d="" fill="#A3BACD" transform="translate(0,0)"/>
<path d="M0 0 C3 1 3 1 3 1 Z " fill="#ACC3D3" transform="translate(344,360)"/>
<path d="M0 0 C3 1 3 1 3 1 Z " fill="#C0D4E0" transform="translate(440,320)"/>
<path d="M0 0 C3 1 3 1 3 1 Z " fill="#B8CDD9" transform="translate(541,304)"/>
<path d="M0 0 C2 1 2 1 2 1 Z " fill="#678199" transform="translate(568,622)"/>
<path d="M0 0 C2 1 2 1 2 1 Z " fill="#7F9BB1" transform="translate(448,620)"/>
<path d="" fill="#7896AE" transform="translate(0,0)"/>
<path d="M0 0 C2 1 2 1 2 1 Z " fill="#7B9AB2" transform="translate(572,566)"/>
<path d="M0 0 C2 1 2 1 2 1 Z " fill="#7C9AB0" transform="translate(336,563)"/>
<path d="" fill="#83A1B5" transform="translate(0,0)"/>
<path d="" fill="#A9C1D5" transform="translate(0,0)"/>
<path d="" fill="#A9C3D3" transform="translate(0,0)"/>
<path d="M0 0 C2 1 2 1 2 1 Z " fill="#A9C4D5" transform="translate(615,405)"/>
<path d="M0 0 C2 1 2 1 2 1 Z " fill="#A1BACC" transform="translate(677,360)"/>
<path d="M0 0 C2 1 2 1 2 1 Z " fill="#B3C9D7" transform="translate(622,336)"/>
<path d="" fill="#B4CAD8" transform="translate(0,0)"/>
<path d="M0 0 C2 1 2 1 2 1 Z " fill="#BACFDC" transform="translate(437,321)"/>
<path d="M0 0 C2 1 2 1 2 1 Z " fill="#BCD4E1" transform="translate(561,312)"/>
<path d="" fill="#1B1D1F" transform="translate(0,0)"/>
<path d="" fill="#171A1A" transform="translate(0,0)"/>
<path d="" fill="#131515" transform="translate(0,0)"/>
<path d="" fill="#161919" transform="translate(0,0)"/>
<path d="" fill="#222424" transform="translate(0,0)"/>
<path d="" fill="#212426" transform="translate(0,0)"/>
<path d="" fill="#272A2C" transform="translate(0,0)"/>
<path d="" fill="#262A2A" transform="translate(0,0)"/>
<path d="" fill="#171A19" transform="translate(0,0)"/>
<path d="" fill="#1E1E1F" transform="translate(0,0)"/>
<path d="" fill="#292B2E" transform="translate(0,0)"/>
<path d="" fill="#1B1D1C" transform="translate(0,0)"/>
<path d="" fill="#383B3F" transform="translate(0,0)"/>
<path d="" fill="#464E50" transform="translate(0,0)"/>
<path d="" fill="#444D51" transform="translate(0,0)"/>
<path d="" fill="#30353A" transform="translate(0,0)"/>
<path d="" fill="#4A5055" transform="translate(0,0)"/>
<path d="" fill="#7A93A6" transform="translate(0,0)"/>
<path d="" fill="#7896A9" transform="translate(0,0)"/>
<path d="" fill="#7994A7" transform="translate(0,0)"/>
<path d="" fill="#6C8699" transform="translate(0,0)"/>
<path d="" fill="#728D9D" transform="translate(0,0)"/>
<path d="" fill="#708E9F" transform="translate(0,0)"/>
<path d="" fill="#383E41" transform="translate(0,0)"/>
<path d="" fill="#69869B" transform="translate(0,0)"/>
<path d="" fill="#6A8398" transform="translate(0,0)"/>
<path d="" fill="#809BB0" transform="translate(0,0)"/>
<path d="" fill="#25282B" transform="translate(0,0)"/>
<path d="" fill="#6A869B" transform="translate(0,0)"/>
<path d="" fill="#26292A" transform="translate(0,0)"/>
<path d="" fill="#688499" transform="translate(0,0)"/>
<path d="" fill="#7D9BAE" transform="translate(0,0)"/>
<path d="" fill="#7E9AB0" transform="translate(0,0)"/>
<path d="" fill="#7B98AB" transform="translate(0,0)"/>
<path d="" fill="#6C88A1" transform="translate(0,0)"/>
<path d="" fill="#7B99AD" transform="translate(0,0)"/>
<path d="" fill="#6C89A3" transform="translate(0,0)"/>
<path d="" fill="#7A99AC" transform="translate(0,0)"/>
<path d="" fill="#7A98AD" transform="translate(0,0)"/>
<path d="" fill="#6F8C9F" transform="translate(0,0)"/>
<path d="" fill="#6D89A0" transform="translate(0,0)"/>
<path d="" fill="#6D8A9E" transform="translate(0,0)"/>
<path d="" fill="#7D9BB4" transform="translate(0,0)"/>
<path d="" fill="#6B859A" transform="translate(0,0)"/>
<path d="" fill="#7896AA" transform="translate(0,0)"/>
<path d="" fill="#7C99AF" transform="translate(0,0)"/>
<path d="" fill="#7995AC" transform="translate(0,0)"/>
<path d="" fill="#6A859B" transform="translate(0,0)"/>
<path d="" fill="#7794A7" transform="translate(0,0)"/>
<path d="" fill="#7897AE" transform="translate(0,0)"/>
<path d="" fill="#7795A9" transform="translate(0,0)"/>
<path d="" fill="#7B9AB1" transform="translate(0,0)"/>
<path d="" fill="#7995A8" transform="translate(0,0)"/>
<path d="" fill="#7C9CB5" transform="translate(0,0)"/>
<path d="" fill="#7996AF" transform="translate(0,0)"/>
<path d="" fill="#809BAF" transform="translate(0,0)"/>
<path d="" fill="#7898AF" transform="translate(0,0)"/>
<path d="" fill="#6D88A1" transform="translate(0,0)"/>
<path d="" fill="#7998B1" transform="translate(0,0)"/>
<path d="" fill="#728EA4" transform="translate(0,0)"/>
<path d="" fill="#6E8AA1" transform="translate(0,0)"/>
<path d="" fill="#7C9BB2" transform="translate(0,0)"/>
<path d="" fill="#7E9CB1" transform="translate(0,0)"/>
<path d="" fill="#7E9DB2" transform="translate(0,0)"/>
<path d="" fill="#7C9BB4" transform="translate(0,0)"/>
<path d="" fill="#7491A8" transform="translate(0,0)"/>
<path d="" fill="#7B9AAF" transform="translate(0,0)"/>
<path d="" fill="#7C9BB2" transform="translate(0,0)"/>
<path d="" fill="#809DB5" transform="translate(0,0)"/>
<path d="" fill="#728FA5" transform="translate(0,0)"/>
<path d="" fill="#41474D" transform="translate(0,0)"/>
<path d="" fill="#97B1C6" transform="translate(0,0)"/>
<path d="" fill="#434B51" transform="translate(0,0)"/>
<path d="" fill="#A1BDCE" transform="translate(0,0)"/>
<path d="" fill="#A8C1D1" transform="translate(0,0)"/>
<path d="" fill="#A6BFD3" transform="translate(0,0)"/>
<path d="" fill="#A4BED2" transform="translate(0,0)"/>
<path d="" fill="#303538" transform="translate(0,0)"/>
<path d="" fill="#A8C1D2" transform="translate(0,0)"/>
<path d="" fill="#A9C1D4" transform="translate(0,0)"/>
<path d="" fill="#A9C2D7" transform="translate(0,0)"/>
<path d="" fill="#A5C1D3" transform="translate(0,0)"/>
<path d="" fill="#A9C3D5" transform="translate(0,0)"/>
<path d="" fill="#ABC2D5" transform="translate(0,0)"/>
<path d="" fill="#A7C1D4" transform="translate(0,0)"/>
<path d="" fill="#A4BDD1" transform="translate(0,0)"/>
<path d="" fill="#A4C1D3" transform="translate(0,0)"/>
<path d="" fill="#A6BED5" transform="translate(0,0)"/>
<path d="" fill="#A7BFD2" transform="translate(0,0)"/>
<path d="" fill="#A9C0D3" transform="translate(0,0)"/>
<path d="" fill="#A6C2D4" transform="translate(0,0)"/>
<path d="" fill="#AAC1D4" transform="translate(0,0)"/>
<path d="" fill="#A7C1D5" transform="translate(0,0)"/>
<path d="" fill="#A9C3D6" transform="translate(0,0)"/>
<path d="" fill="#8FA9BE" transform="translate(0,0)"/>
<path d="" fill="#ABC7DD" transform="translate(0,0)"/>
<path d="" fill="#ADC6D7" transform="translate(0,0)"/>
<path d="" fill="#A4BED2" transform="translate(0,0)"/>
<path d="" fill="#A7C1D5" transform="translate(0,0)"/>
<path d="" fill="#8BA4B8" transform="translate(0,0)"/>
<path d="" fill="#A9C3D7" transform="translate(0,0)"/>
<path d="" fill="#A3BBCE" transform="translate(0,0)"/>
<path d="" fill="#A6C0D1" transform="translate(0,0)"/>
<path d="" fill="#94ADC0" transform="translate(0,0)"/>
<path d="" fill="#58636C" transform="translate(0,0)"/>
<path d="" fill="#9DB7C8" transform="translate(0,0)"/>
<path d="" fill="#A4BDCC" transform="translate(0,0)"/>
<path d="" fill="#A1BACB" transform="translate(0,0)"/>
<path d="" fill="#AAC3D1" transform="translate(0,0)"/>
<path d="" fill="#A3BCCD" transform="translate(0,0)"/>
<path d="" fill="#AFC7D6" transform="translate(0,0)"/>
<path d="" fill="#B8CEDD" transform="translate(0,0)"/>
<path d="" fill="#B0C7D6" transform="translate(0,0)"/>
<path d="" fill="#B0CAD7" transform="translate(0,0)"/>
<path d="" fill="#A6BFD0" transform="translate(0,0)"/>
<path d="" fill="#A9BCCD" transform="translate(0,0)"/>
<path d="" fill="#AFC9D8" transform="translate(0,0)"/>
<path d="" fill="#ACC7D4" transform="translate(0,0)"/>
<path d="" fill="#262B2D" transform="translate(0,0)"/>
<path d="" fill="#41494E" transform="translate(0,0)"/>
<path d="" fill="#B0C5D5" transform="translate(0,0)"/>
<path d="" fill="#B0C4D4" transform="translate(0,0)"/>
<path d="" fill="#B3CBD8" transform="translate(0,0)"/>
<path d="" fill="#B1C6D8" transform="translate(0,0)"/>
<path d="" fill="#AEC6D5" transform="translate(0,0)"/>
<path d="" fill="#AEC5D4" transform="translate(0,0)"/>
<path d="" fill="#AFC5D5" transform="translate(0,0)"/>
<path d="" fill="#BBCEDD" transform="translate(0,0)"/>
<path d="" fill="#717F88" transform="translate(0,0)"/>
<path d="" fill="#B5CBD8" transform="translate(0,0)"/>
<path d="" fill="#BACFDA" transform="translate(0,0)"/>
<path d="" fill="#B3C6D6" transform="translate(0,0)"/>
<path d="" fill="#B5CADB" transform="translate(0,0)"/>
<path d="" fill="#292D2E" transform="translate(0,0)"/>
<path d="" fill="#BDD2DE" transform="translate(0,0)"/>
<path d="" fill="#B3C7D8" transform="translate(0,0)"/>
<path d="" fill="#B5C8D7" transform="translate(0,0)"/>
<path d="" fill="#C1D5E2" transform="translate(0,0)"/>
<path d="" fill="#BED1DF" transform="translate(0,0)"/>
<path d="" fill="#282D2C" transform="translate(0,0)"/>
<path d="" fill="#BDCFDA" transform="translate(0,0)"/>
<path d="" fill="#BCCFDB" transform="translate(0,0)"/>
<path d="" fill="#BED1DF" transform="translate(0,0)"/>
<path d="" fill="#B6CAD8" transform="translate(0,0)"/>
<path d="" fill="#BACCD9" transform="translate(0,0)"/>
<path d="" fill="#B7CCD9" transform="translate(0,0)"/>
<path d="" fill="#B8CCD8" transform="translate(0,0)"/>
<path d="" fill="#3A4043" transform="translate(0,0)"/>
<path d="" fill="#2D3235" transform="translate(0,0)"/>
<path d="" fill="#525C63" transform="translate(0,0)"/>
<path d="" fill="#4F575D" transform="translate(0,0)"/>
<path d="" fill="#2C2E31" transform="translate(0,0)"/>
<path d="" fill="#565F66" transform="translate(0,0)"/>
<path d="" fill="#42484D" transform="translate(0,0)"/>
<path d="" fill="#171919" transform="translate(0,0)"/>
<path d="" fill="#232827" transform="translate(0,0)"/>
<path d="" fill="#2D3032" transform="translate(0,0)"/>
<path d="" fill="#2E3234" transform="translate(0,0)"/>
<path d="" fill="#2B2F31" transform="translate(0,0)"/>
<path d="" fill="#2A2C2F" transform="translate(0,0)"/>
<path d="" fill="#282A2C" transform="translate(0,0)"/>
<path d="" fill="#202323" transform="translate(0,0)"/>
<path d="" fill="#232527" transform="translate(0,0)"/>
<path d="" fill="#242727" transform="translate(0,0)"/>
<path d="" fill="#26282B" transform="translate(0,0)"/>
<path d="" fill="#212426" transform="translate(0,0)"/>
<path d="" fill="#26282A" transform="translate(0,0)"/>
</svg>
